<svg width="25" height="35" viewBox="0 0 25 35" fill="none" xmlns="http://www.w3.org/2000/svg">
<path d="M12.0716 15.4105C11.9091 15.3942 11.7142 15.3942 11.5355 15.4105C7.66882 15.2805 4.59827 12.1125 4.59827 8.21337C4.59827 4.23302 7.81504 1 11.8116 1C15.7919 1 19.0249 4.23302 19.0249 8.21337C19.0087 12.1125 15.9381 15.2805 12.0716 15.4105Z" stroke="#353535" stroke-width="2" stroke-linecap="round" stroke-linejoin="round"/>
<path d="M3.94871 21.4055C0.0170967 24.0374 0.0170967 28.3264 3.94871 30.9421C8.41645 33.9314 15.7435 33.9314 20.2113 30.9421C24.1429 28.3102 24.1429 24.0211 20.2113 21.4055C15.7598 18.4324 8.4327 18.4324 3.94871 21.4055Z" stroke="#353535" stroke-width="2" stroke-linecap="round" stroke-linejoin="round"/>
</svg>
