<svg width="30" height="32" viewBox="0 0 30 32" fill="none" xmlns="http://www.w3.org/2000/svg">
<path d="M17.9787 6.04255C17.9787 5.75887 17.8901 5.52837 17.7128 5.35106C17.5355 5.17376 17.305 5.08511 17.0213 5.08511H7.02128C6.73759 5.08511 6.50709 5.17376 6.32979 5.35106C6.15248 5.52837 6.06383 5.75887 6.06383 6.04255V14.0213C6.06383 14.305 6.15248 14.5532 6.32979 14.766C6.50709 14.9787 6.73759 15.0851 7.02128 15.0851H17.0213C17.305 15.0851 17.5355 14.9787 17.7128 14.766C17.8901 14.5532 17.9787 14.305 17.9787 14.0213V6.04255ZM15.9574 13.0638H7.97872V7.10638H15.9574V13.0638ZM29.4681 7.10638L25.4255 5.19149C25.2128 5.04964 24.9645 5.01418 24.6809 5.08511C24.3972 5.15603 24.2021 5.3156 24.0957 5.56383C23.9894 5.81206 23.9716 6.07801 24.0426 6.3617C24.1135 6.64539 24.2908 6.82269 24.5745 6.89362L26.0638 7.74468L25.9574 8.06383C25.9574 8.70213 26.1525 9.2695 26.5426 9.76596C26.9326 10.2624 27.4113 10.617 27.9787 10.8298V22.9574C27.9787 23.2411 27.8723 23.4894 27.6596 23.7021C27.4468 23.9149 27.2163 24.0213 26.9681 24.0213C26.7199 24.0213 26.4894 23.9149 26.2766 23.7021C26.0638 23.4894 25.9574 23.2411 25.9574 22.9574V14.9787C25.9574 13.844 25.5496 12.8156 24.734 11.8936C23.9184 10.9716 23.0142 10.4043 22.0213 10.1915V4.02128C22.0213 2.95745 21.6312 2.03546 20.8511 1.25532C20.0709 0.475176 19.1489 0.0851059 18.0851 0.0851059H6.06383C5 0.0851059 4.06028 0.475176 3.24468 1.25532C2.42908 2.03546 2.02128 2.95745 2.02128 4.02128V26.3617L0.638298 27.1064C0.212766 27.3191 0 27.6028 0 27.9574V30.9362C0 31.2199 0.106383 31.4681 0.319149 31.6809C0.531915 31.8936 0.780142 32 1.06383 32H22.9787C23.2624 32 23.4929 31.8936 23.6702 31.6809C23.8475 31.4681 23.9362 31.2199 23.9362 30.9362V27.9574C23.9362 27.6028 23.7589 27.3191 23.4043 27.1064L22.0213 26.3617V12.2128C22.5177 12.4255 22.961 12.7979 23.3511 13.3298C23.7411 13.8617 23.9362 14.4113 23.9362 14.9787V22.9574C23.9362 23.8085 24.2376 24.5355 24.8404 25.1383C25.4433 25.7411 26.1525 26.0426 26.9681 26.0426C27.7837 26.0426 28.4929 25.7411 29.0957 25.1383C29.6986 24.5355 30 23.8085 30 22.9574V8.06383C30 7.6383 29.8227 7.31915 29.4681 7.10638ZM22.0213 29.9787H2.02128V28.5957L3.51064 27.8511C3.86525 27.7092 4.04255 27.4255 4.04255 27V4.02128C4.04255 3.52482 4.23759 3.08156 4.62766 2.69149C5.01773 2.30142 5.49645 2.10638 6.06383 2.10638H18.0851C18.5816 2.10638 19.0248 2.30142 19.4149 2.69149C19.805 3.08156 20 3.52482 20 4.02128V27C20 27.4255 20.1773 27.7092 20.5319 27.8511L22.0213 28.5957V29.9787Z" fill="#050B20"/>
</svg>
