<svg width="145" height="29" viewBox="0 0 145 29" fill="none" xmlns="http://www.w3.org/2000/svg">
<path d="M7.03853 25.3748L9.00207 16.8863L2.41666 11.1769L11.1167 10.4217L14.5 2.4165L17.8833 10.4217L26.5833 11.1769L19.9979 16.8863L21.9614 25.3748L14.5 20.8738L7.03853 25.3748Z" fill="#003D84"/>
<path d="M36.0385 25.3748L38.0021 16.8863L31.4167 11.1769L40.1167 10.4217L43.5 2.4165L46.8833 10.4217L55.5833 11.1769L48.9979 16.8863L50.9614 25.3748L43.5 20.8738L36.0385 25.3748Z" fill="#003D84"/>
<path d="M65.0385 25.3748L67.0021 16.8863L60.4167 11.1769L69.1167 10.4217L72.5 2.4165L75.8833 10.4217L84.5833 11.1769L77.9979 16.8863L79.9614 25.3748L72.5 20.8738L65.0385 25.3748Z" fill="#003D84"/>
<path d="M94.0385 25.3748L96.0021 16.8863L89.4167 11.1769L98.1167 10.4217L101.5 2.4165L104.883 10.4217L113.583 11.1769L106.998 16.8863L108.961 25.3748L101.5 20.8738L94.0385 25.3748Z" fill="#003D84"/>
<path d="M123.039 25.3748L125.002 16.8863L118.417 11.1769L127.117 10.4217L130.5 2.4165L133.883 10.4217L142.583 11.1769L135.998 16.8863L137.961 25.3748L130.5 20.8738L123.039 25.3748Z" fill="#AFAFAF"/>
</svg>
