<svg width="28" height="29" viewBox="0 0 28 29" fill="none" xmlns="http://www.w3.org/2000/svg">
<path d="M14 3.68408H5.83333C5.21449 3.68408 4.621 3.92991 4.18342 4.3675C3.74583 4.80508 3.5 5.39858 3.5 6.01742V22.3507C3.5 22.9696 3.74583 23.5631 4.18342 24.0007C4.621 24.4382 5.21449 24.6841 5.83333 24.6841H22.1667C22.7855 24.6841 23.379 24.4382 23.8166 24.0007C24.2542 23.5631 24.5 22.9696 24.5 22.3507V14.1841" stroke="#353535" stroke-width="2" stroke-linecap="round" stroke-linejoin="round"/>
<path d="M21.4374 3.2466C21.9016 2.78247 22.5311 2.52173 23.1874 2.52173C23.8438 2.52173 24.4733 2.78247 24.9374 3.2466C25.4016 3.71073 25.6623 4.34022 25.6623 4.9966C25.6623 5.65298 25.4016 6.28247 24.9374 6.7466L14.4223 17.2629C14.1453 17.5397 13.803 17.7423 13.4271 17.8521L10.0753 18.8321C9.97489 18.8614 9.86847 18.8631 9.76717 18.8372C9.66587 18.8112 9.57341 18.7585 9.49947 18.6846C9.42552 18.6106 9.37282 18.5182 9.34686 18.4169C9.32091 18.3156 9.32267 18.2092 9.35195 18.1088L10.3319 14.7569C10.4422 14.3813 10.6452 14.0395 10.9223 13.7629L21.4374 3.2466Z" stroke="#353535" stroke-width="2" stroke-linecap="round" stroke-linejoin="round"/>
</svg>
