<svg width="30" height="25" viewBox="0 0 30 25" fill="none" xmlns="http://www.w3.org/2000/svg">
<path d="M30 15.2307C30 18.7062 29 21.8069 27 24.5327C26.8 24.8053 26.5333 24.9586 26.2 24.9927C25.8667 25.0268 25.5667 24.9416 25.3 24.7371C25.0333 24.5327 24.8833 24.2772 24.85 23.9705C24.8167 23.6638 24.9 23.3742 25.1 23.1016C26.8333 20.7847 27.7 18.161 27.7 15.2307C27.7 12.9137 27.1333 10.7671 26 8.79089C24.8667 6.81464 23.3167 5.24727 21.35 4.08879C19.3833 2.9303 17.2667 2.35105 15 2.35105C12.7333 2.35105 10.6167 2.9303 8.65 4.08879C6.68333 5.24727 5.13333 6.81464 4 8.79089C2.86667 10.7671 2.3 12.9137 2.3 15.2307C2.3 18.161 3.16667 20.7847 4.9 23.1016C5.1 23.3742 5.18333 23.6638 5.15 23.9705C5.11667 24.2772 4.96667 24.5327 4.7 24.7371C4.43333 24.9416 4.13333 25.0268 3.8 24.9927C3.46667 24.9586 3.2 24.8053 3 24.5327C1 21.8069 0 18.7062 0 15.2307C0 12.5049 0.666667 9.96641 2 7.61536C3.33333 5.26431 5.15 3.40732 7.45 2.04439C9.75 0.681465 12.2667 0 15 0C17.7333 0 20.25 0.681465 22.55 2.04439C24.85 3.40732 26.6667 5.26431 28 7.61536C29.3333 9.96641 30 12.5049 30 15.2307ZM22.4 8.07535C22.6667 8.27979 22.8 8.55238 22.8 8.89311C22.8 9.23384 22.6667 9.50643 22.4 9.71087L18.6 13.6974C18.9333 14.3107 19.1 14.9581 19.1 15.6396C19.1 16.7981 18.7 17.7862 17.9 18.604C17.1 19.4217 16.1333 19.8306 15 19.8306C13.8667 19.8306 12.9 19.4217 12.1 18.604C11.3 17.7862 10.9 16.7981 10.9 15.6396C10.9 14.4811 11.3 13.493 12.1 12.6752C12.9 11.8575 13.8667 11.4486 15 11.4486C15.6667 11.4486 16.3 11.619 16.9 11.9597L20.8 8.07535C21 7.80276 21.2667 7.66647 21.6 7.66647C21.9333 7.66647 22.2 7.80276 22.4 8.07535ZM16.8 15.6396C16.8 15.1626 16.6167 14.7537 16.25 14.413C15.8833 14.0722 15.4667 13.9019 15 13.9019C14.5333 13.9019 14.1167 14.0722 13.75 14.413C13.3833 14.7537 13.2 15.1626 13.2 15.6396C13.2 16.1166 13.3833 16.5425 13.75 16.9173C14.1167 17.2922 14.5333 17.4796 15 17.4796C15.4667 17.4796 15.8833 17.2922 16.25 16.9173C16.6167 16.5425 16.8 16.1166 16.8 15.6396Z" fill="#050B20"/>
</svg>
