<svg width="28" height="28" viewBox="0 0 28 28" fill="none" xmlns="http://www.w3.org/2000/svg">
<path d="M19.7528 27.4438H1.90092C1.34055 27.4438 0.861064 27.2287 0.514208 26.8218C0.0930362 26.3276 -0.0848935 25.5756 0.0380138 24.8106C0.170496 23.9862 0.649835 22.8125 1.56464 22.2167C3.0804 21.2297 4.6599 21.2305 5.15382 21.2597C6.05132 20.52 7.26225 20.0152 8.89606 20.0152C11.4454 20.0152 13.7693 20.3389 15.5768 20.703C15.654 20.0688 15.8545 18.7221 16.3199 16.9699C16.9095 14.7503 17.8407 12.5056 17.9926 12.145C18.0256 11.047 18.1118 9.92479 18.2722 8.81619C17.7535 8.63726 17.3191 8.28769 17.0289 7.81078C16.6875 7.24912 16.5952 6.591 16.7688 5.95717L17.5036 3.27479C17.8298 2.0833 19.0343 1.33814 20.2463 1.57981L21.6891 1.86707C24.3711 -0.0084095 27.671 0.675441 27.7193 0.686303C27.9074 0.727605 28.0289 0.910394 27.994 1.0999L23.7657 24.1013C23.4096 26.0381 21.722 27.4438 19.7528 27.4438ZM3.32921 26.7292H19.7526C21.377 26.7292 22.769 25.5697 23.0627 23.9721L27.2258 1.32613C26.3513 1.20394 23.9962 1.04831 22.0303 2.48404C21.9984 2.51962 21.9598 2.54849 21.9169 2.56907C20.8782 3.36654 19.9604 4.6242 19.4454 6.58757C17.6692 13.359 19.5768 21.8768 19.5963 21.9621C19.6254 22.0898 19.5824 22.2231 19.4841 22.3098C19.3858 22.3962 19.248 22.4222 19.1249 22.3773C19.0799 22.3609 14.5614 20.7299 8.8962 20.7299C7.54493 20.7299 6.42019 21.1108 5.53168 21.8661C5.51182 21.8881 5.48924 21.9077 5.46451 21.9243C4.90171 22.4215 4.43638 23.0732 4.07109 23.8773C3.55388 25.0159 3.38409 26.162 3.32921 26.7292ZM4.4218 21.9886C3.78197 22.044 2.84802 22.2338 1.95465 22.8153C1.28181 23.2535 0.861636 24.1902 0.743587 24.9239C0.653408 25.4851 0.771027 26.0215 1.05814 26.3584C1.2678 26.6045 1.55135 26.7292 1.90092 26.7292H2.61349C2.69438 25.8779 3.03366 23.6467 4.4218 21.9886ZM16.2794 20.8518C17.3851 21.0979 18.2453 21.3447 18.7745 21.5095C18.5426 20.3032 18.0629 17.445 17.9868 14.1181C17.6686 14.9826 17.2979 16.0716 17.0105 17.1533C16.5436 18.9113 16.3487 20.2716 16.2794 20.8518ZM19.7869 2.24923C19.0581 2.24923 18.3915 2.73743 18.1927 3.46358L17.458 6.14596C17.3368 6.58828 17.4014 7.04776 17.6396 7.43963C17.8193 7.73504 18.0785 7.9607 18.3875 8.09475C18.4877 7.52438 18.6089 6.95972 18.7541 6.40635C19.23 4.59175 20.0327 3.32767 20.9677 2.45217L20.1068 2.28095C19.9997 2.25937 19.8927 2.24923 19.7869 2.24923Z" fill="black" stroke="black"/>
</svg>
