<svg width="55" height="55" viewBox="0 0 55 55" fill="none" xmlns="http://www.w3.org/2000/svg">
<path d="M27.5449 6.66907C19.9595 6.66907 13.7949 12.8337 13.7949 20.4191V27.0421C13.7949 28.44 13.1991 30.5712 12.4887 31.7629L9.85327 36.14C8.22619 38.8442 9.3491 41.8462 12.3283 42.8546C22.2054 46.1546 32.8616 46.1546 42.7387 42.8546C45.5116 41.9379 46.7262 38.6608 45.2137 36.14L42.5783 31.7629C41.8908 30.5712 41.2949 28.44 41.2949 27.0421V20.4191C41.2949 12.8566 35.1074 6.66907 27.5449 6.66907Z" stroke="#292D32" stroke-width="4" stroke-miterlimit="10" stroke-linecap="round"/>
<path d="M31.7852 7.33318C31.0748 7.12693 30.3414 6.96651 29.5852 6.87485C27.3852 6.59985 25.2769 6.76026 23.306 7.33318C23.9706 5.63735 25.6206 4.44568 27.5456 4.44568C29.4706 4.44568 31.1206 5.63735 31.7852 7.33318Z" stroke="#292D32" stroke-width="4" stroke-miterlimit="10" stroke-linecap="round" stroke-linejoin="round"/>
<path opacity="0.4" d="M34.4197 43.6794C34.4197 47.4607 31.326 50.5544 27.5447 50.5544C25.6656 50.5544 23.9239 49.7753 22.6865 48.5378C21.449 47.3003 20.6698 45.5586 20.6698 43.6794" stroke="#292D32" stroke-width="4" stroke-miterlimit="10"/>
</svg>
