<svg width="28" height="26" viewBox="0 0 28 26" fill="none" xmlns="http://www.w3.org/2000/svg">
<path d="M3.55224 0C2.57711 0 1.74129 0.355192 1.04478 1.06557C0.348259 1.77596 0 2.64618 0 3.67623C0 4.70628 0.348259 5.5765 1.04478 6.28689C1.74129 6.99727 2.57711 7.35246 3.55224 7.35246C4.52736 7.35246 5.36318 6.99727 6.0597 6.28689C6.75622 5.5765 7.10448 4.70628 7.10448 3.67623C7.10448 2.64618 6.75622 1.77596 6.0597 1.06557C5.36318 0.355192 4.52736 0 3.55224 0ZM3.55224 2.02459C3.97015 2.02459 4.35323 2.18443 4.70149 2.5041C5.04975 2.82377 5.22388 3.21448 5.22388 3.67623C5.22388 4.13798 5.04975 4.52869 4.70149 4.84836C4.35323 5.16803 3.97015 5.32787 3.55224 5.32787C3.13433 5.32787 2.75124 5.16803 2.40299 4.84836C2.05473 4.52869 1.8806 4.13798 1.8806 3.67623C1.8806 3.21448 2.05473 2.82377 2.40299 2.5041C2.75124 2.18443 3.13433 2.02459 3.55224 2.02459ZM3.55224 18.6475C2.57711 18.6475 1.74129 19.0027 1.04478 19.7131C0.348259 20.4235 0 21.2937 0 22.3238C0 23.3538 0.348259 24.224 1.04478 24.9344C1.74129 25.6448 2.57711 26 3.55224 26C4.52736 26 5.36318 25.6448 6.0597 24.9344C6.75622 24.224 7.10448 23.3538 7.10448 22.3238C7.10448 21.2937 6.75622 20.4235 6.0597 19.7131C5.36318 19.0027 4.52736 18.6475 3.55224 18.6475ZM3.55224 20.6721C3.97015 20.6721 4.35323 20.832 4.70149 21.1516C5.04975 21.4713 5.22388 21.862 5.22388 22.3238C5.22388 22.7855 5.04975 23.1762 4.70149 23.4959C4.35323 23.8156 3.97015 23.9754 3.55224 23.9754C3.13433 23.9754 2.75124 23.8156 2.40299 23.4959C2.05473 23.1762 1.8806 22.7855 1.8806 22.3238C1.8806 21.862 2.05473 21.4713 2.40299 21.1516C2.75124 20.832 3.13433 20.6721 3.55224 20.6721ZM14 0C13.0249 0 12.1891 0.355192 11.4925 1.06557C10.796 1.77596 10.4478 2.64618 10.4478 3.67623C10.4478 4.70628 10.796 5.5765 11.4925 6.28689C12.1891 6.99727 13.0249 7.35246 14 7.35246C14.9751 7.35246 15.8109 6.99727 16.5075 6.28689C17.204 5.5765 17.5522 4.70628 17.5522 3.67623C17.5522 2.64618 17.204 1.77596 16.5075 1.06557C15.8109 0.355192 14.9751 0 14 0ZM14 2.02459C14.4179 2.02459 14.801 2.18443 15.1493 2.5041C15.4975 2.82377 15.6716 3.21448 15.6716 3.67623C15.6716 4.13798 15.4975 4.52869 15.1493 4.84836C14.801 5.16803 14.4179 5.32787 14 5.32787C13.5821 5.32787 13.199 5.16803 12.8507 4.84836C12.5025 4.52869 12.3284 4.13798 12.3284 3.67623C12.3284 3.21448 12.5025 2.82377 12.8507 2.5041C13.199 2.18443 13.5821 2.02459 14 2.02459ZM14 18.6475C13.0249 18.6475 12.1891 19.0027 11.4925 19.7131C10.796 20.4235 10.4478 21.2937 10.4478 22.3238C10.4478 23.3538 10.796 24.224 11.4925 24.9344C12.1891 25.6448 13.0249 26 14 26C14.9751 26 15.8109 25.6448 16.5075 24.9344C17.204 24.224 17.5522 23.3538 17.5522 22.3238C17.5522 21.2937 17.204 20.4235 16.5075 19.7131C15.8109 19.0027 14.9751 18.6475 14 18.6475ZM14 20.6721C14.4179 20.6721 14.801 20.832 15.1493 21.1516C15.4975 21.4713 15.6716 21.862 15.6716 22.3238C15.6716 22.7855 15.4975 23.1762 15.1493 23.4959C14.801 23.8156 14.4179 23.9754 14 23.9754C13.5821 23.9754 13.199 23.8156 12.8507 23.4959C12.5025 23.1762 12.3284 22.7855 12.3284 22.3238C12.3284 21.862 12.5025 21.4713 12.8507 21.1516C13.199 20.832 13.5821 20.6721 14 20.6721ZM24.4478 0C23.4726 0 22.6368 0.355192 21.9403 1.06557C21.2438 1.77596 20.8955 2.64618 20.8955 3.67623C20.8955 4.70628 21.2438 5.5765 21.9403 6.28689C22.6368 6.99727 23.4726 7.35246 24.4478 7.35246C25.4229 7.35246 26.2587 6.99727 26.9552 6.28689C27.6517 5.5765 28 4.70628 28 3.67623C28 2.64618 27.6517 1.77596 26.9552 1.06557C26.2587 0.355192 25.4229 0 24.4478 0ZM24.4478 2.02459C24.8657 2.02459 25.2488 2.18443 25.597 2.5041C25.9453 2.82377 26.1194 3.21448 26.1194 3.67623C26.1194 4.13798 25.9453 4.52869 25.597 4.84836C25.2488 5.16803 24.8657 5.32787 24.4478 5.32787C24.0299 5.32787 23.6468 5.16803 23.2985 4.84836C22.9502 4.52869 22.7761 4.13798 22.7761 3.67623C22.7761 3.21448 22.9502 2.82377 23.2985 2.5041C23.6468 2.18443 24.0299 2.02459 24.4478 2.02459ZM24.4478 18.6475C23.4726 18.6475 22.6368 19.0027 21.9403 19.7131C21.2438 20.4235 20.8955 21.2937 20.8955 22.3238C20.8955 23.3538 21.2438 24.224 21.9403 24.9344C22.6368 25.6448 23.4726 26 24.4478 26C25.4229 26 26.2587 25.6448 26.9552 24.9344C27.6517 24.224 28 23.3538 28 22.3238C28 21.2937 27.6517 20.4235 26.9552 19.7131C26.2587 19.0027 25.4229 18.6475 24.4478 18.6475ZM24.4478 20.6721C24.8657 20.6721 25.2488 20.832 25.597 21.1516C25.9453 21.4713 26.1194 21.862 26.1194 22.3238C26.1194 22.7855 25.9453 23.1762 25.597 23.4959C25.2488 23.8156 24.8657 23.9754 24.4478 23.9754C24.0299 23.9754 23.6468 23.8156 23.2985 23.4959C22.9502 23.1762 22.7761 22.7855 22.7761 22.3238C22.7761 21.862 22.9502 21.4713 23.2985 21.1516C23.6468 20.832 24.0299 20.6721 24.4478 20.6721ZM2.61194 6.28689V19.6066C2.61194 19.8907 2.69901 20.1393 2.87313 20.3525C3.04726 20.5656 3.27363 20.6721 3.55224 20.6721C3.83085 20.6721 4.05721 20.5656 4.23134 20.3525C4.40547 20.1393 4.49254 19.9262 4.49254 19.7131V6.28689C4.49254 6.07377 4.40547 5.86066 4.23134 5.64754C4.05721 5.43443 3.83085 5.32787 3.55224 5.32787C3.27363 5.32787 3.04726 5.43443 2.87313 5.64754C2.69901 5.86066 2.61194 6.07377 2.61194 6.28689ZM13.0597 6.28689V19.6066C13.0597 19.8907 13.1468 20.1393 13.3209 20.3525C13.495 20.5656 13.7214 20.6721 14 20.6721C14.2786 20.6721 14.505 20.5656 14.6791 20.3525C14.8532 20.1393 14.9403 19.9262 14.9403 19.7131V6.28689C14.9403 6.07377 14.8532 5.86066 14.6791 5.64754C14.505 5.43443 14.2786 5.32787 14 5.32787C13.7214 5.32787 13.495 5.43443 13.3209 5.64754C13.1468 5.86066 13.0597 6.07377 13.0597 6.28689ZM23.5075 6.28689V11.6148C23.5075 11.7568 23.4726 11.8634 23.403 11.9344C23.3333 12.0055 23.2637 12.041 23.194 12.041H3.55224C3.27363 12.041 3.04726 12.1298 2.87313 12.3074C2.69901 12.485 2.61194 12.7158 2.61194 13C2.61194 13.2842 2.69901 13.515 2.87313 13.6926C3.04726 13.8702 3.27363 13.959 3.55224 13.959H23.194C23.8209 13.959 24.3433 13.7459 24.7612 13.3197C25.1791 12.8934 25.3881 12.3251 25.3881 11.6148V6.39344C25.3881 6.10929 25.301 5.86066 25.1269 5.64754C24.9527 5.43443 24.7264 5.32787 24.4478 5.32787C24.1692 5.32787 23.9428 5.43443 23.7687 5.64754C23.5945 5.86066 23.5075 6.07377 23.5075 6.28689Z" fill="#050B20"/>
</svg>
