<svg width="40" height="41" viewBox="0 0 40 41" fill="none" xmlns="http://www.w3.org/2000/svg">
<path d="M36.6667 10.2797V14.313C36.6667 16.9464 35.0001 18.613 32.3667 18.613H26.6667V6.96304C26.6667 5.11304 28.1834 3.61304 30.0334 3.61304C31.8501 3.6297 33.5167 4.36304 34.7167 5.56304C35.9167 6.7797 36.6667 8.44637 36.6667 10.2797Z" stroke="#353535" stroke-width="3" stroke-miterlimit="10" stroke-linecap="round" stroke-linejoin="round"/>
<path d="M3.33337 11.9464V35.2797C3.33337 36.663 4.90001 37.4464 6.00001 36.613L8.85004 34.4797C9.51671 33.9797 10.45 34.0464 11.05 34.6464L13.8167 37.4297C14.4667 38.0797 15.5334 38.0797 16.1834 37.4297L18.9834 34.6297C19.5667 34.0464 20.5 33.9797 21.15 34.4797L24 36.613C25.1 37.4297 26.6667 36.6464 26.6667 35.2797V6.94637C26.6667 5.11304 28.1667 3.61304 30 3.61304H11.6667H10C5.00004 3.61304 3.33337 6.59637 3.33337 10.2797V11.9464Z" stroke="#353535" stroke-width="3" stroke-miterlimit="10" stroke-linecap="round" stroke-linejoin="round"/>
<path opacity="0.4" d="M10 15.2798H20" stroke="#353535" stroke-width="3" stroke-linecap="round" stroke-linejoin="round"/>
<path opacity="0.4" d="M11.25 21.9463H18.75" stroke="#353535" stroke-width="3" stroke-linecap="round" stroke-linejoin="round"/>
</svg>
