<svg width="40" height="41" viewBox="0 0 40 41" fill="none" xmlns="http://www.w3.org/2000/svg">
<path d="M15.2676 18.3965C15.101 18.3798 14.901 18.3798 14.7176 18.3965C10.751 18.2632 7.60095 15.0132 7.60095 11.0132C7.60095 6.92983 10.901 3.61316 15.001 3.61316C19.0842 3.61316 22.4009 6.92983 22.4009 11.0132C22.3842 15.0132 19.2342 18.2632 15.2676 18.3965Z" stroke="#353535" stroke-width="3" stroke-linecap="round" stroke-linejoin="round"/>
<path opacity="0.4" d="M27.3489 6.94653C30.5822 6.94653 33.1822 9.5632 33.1822 12.7799C33.1822 15.9299 30.6822 18.4965 27.5655 18.6132C27.4322 18.5965 27.2822 18.5965 27.1322 18.6132" stroke="#353535" stroke-width="3" stroke-linecap="round" stroke-linejoin="round"/>
<path d="M6.93455 24.5465C2.90121 27.2465 2.90121 31.6465 6.93455 34.3299C11.5179 37.3965 19.0345 37.3965 23.6179 34.3299C27.6512 31.6299 27.6512 27.2299 23.6179 24.5465C19.0512 21.4965 11.5345 21.4965 6.93455 24.5465Z" stroke="#353535" stroke-width="3" stroke-linecap="round" stroke-linejoin="round"/>
<path opacity="0.4" d="M30.5664 33.6132C31.7664 33.3632 32.8997 32.8798 33.8331 32.1632C36.4331 30.2132 36.4331 26.9965 33.8331 25.0465C32.9164 24.3465 31.7997 23.8798 30.6164 23.6132" stroke="#353535" stroke-width="3" stroke-linecap="round" stroke-linejoin="round"/>
</svg>
