<svg width="37" height="36" viewBox="0 0 37 36" fill="none" xmlns="http://www.w3.org/2000/svg">
<path d="M24.5134 2.32996H12.8134C8.66341 2.32996 7.74675 4.39662 7.21341 6.92996L5.33008 15.9467H31.9967L30.1134 6.92996C29.5801 4.39662 28.6634 2.32996 24.5134 2.32996Z" stroke="black" stroke-opacity="0.9" stroke-width="3" stroke-linecap="round" stroke-linejoin="round"/>
<path d="M35.3146 30.6465C35.4979 32.5965 33.9312 34.2799 31.9312 34.2799H28.7979C26.9979 34.2799 26.7479 33.5132 26.4312 32.5632L26.0979 31.5632C25.6312 30.1965 25.3312 29.2799 22.9312 29.2799H14.3979C11.9979 29.2799 11.6479 30.3132 11.2313 31.5632L10.8979 32.5632C10.5813 33.5132 10.3313 34.2799 8.53127 34.2799H5.39793C3.39793 34.2799 1.83127 32.5965 2.0146 30.6465L2.94793 20.4965C3.18127 17.9965 3.6646 15.9465 8.03127 15.9465H29.2979C33.6646 15.9465 34.1479 17.9965 34.3813 20.4965L35.3146 30.6465Z" stroke="black" stroke-opacity="0.9" stroke-width="3" stroke-linecap="round" stroke-linejoin="round"/>
<path d="M5.33012 10.9465H3.66345" stroke="black" stroke-opacity="0.9" stroke-width="3" stroke-linecap="round" stroke-linejoin="round"/>
<path d="M33.6634 10.9465H31.9967" stroke="black" stroke-opacity="0.9" stroke-width="3" stroke-linecap="round" stroke-linejoin="round"/>
<g opacity="0.4">
<path d="M18.6635 2.61316V5.94649" stroke="black" stroke-opacity="0.9" stroke-width="3" stroke-linecap="round" stroke-linejoin="round"/>
<path d="M16.1635 5.94653H21.1635" stroke="black" stroke-opacity="0.9" stroke-width="3" stroke-linecap="round" stroke-linejoin="round"/>
</g>
<path opacity="0.4" d="M8.66345 22.6132H13.6635" stroke="black" stroke-opacity="0.9" stroke-width="3" stroke-linecap="round" stroke-linejoin="round"/>
<path opacity="0.4" d="M23.6635 22.6132H28.6635" stroke="black" stroke-opacity="0.9" stroke-width="3" stroke-linecap="round" stroke-linejoin="round"/>
</svg>
