<svg width="80" height="80" viewBox="0 0 80 80" fill="none" xmlns="http://www.w3.org/2000/svg">
<path d="M22.5817 54.9819C21.6328 55.9309 21.6328 57.4693 22.5817 58.4183C23.5307 59.3673 25.0693 59.3673 26.0183 58.4183L22.5817 54.9819ZM42.2182 42.2183C43.1672 41.2693 43.1672 39.7309 42.2182 38.7819C41.2692 37.8329 39.7308 37.8329 38.7818 38.7819L42.2182 42.2183ZM38.7818 38.7819C37.8328 39.7309 37.8328 41.2693 38.7818 42.2183C39.7308 43.1673 41.2692 43.1673 42.2182 42.2183L38.7818 38.7819ZM58.4182 26.0184C59.3672 25.0694 59.3672 23.5308 58.4182 22.5818C57.4692 21.6329 55.9308 21.6329 54.9818 22.5818L58.4182 26.0184ZM42.2182 38.7819C41.2692 37.8329 39.7308 37.8329 38.7818 38.7819C37.8328 39.7309 37.8328 41.2693 38.7818 42.2183L42.2182 38.7819ZM54.9818 58.4183C55.9308 59.3673 57.4692 59.3673 58.4182 58.4183C59.3672 57.4693 59.3672 55.9309 58.4182 54.9819L54.9818 58.4183ZM38.7818 42.2183C39.7308 43.1673 41.2692 43.1673 42.2182 42.2183C43.1672 41.2693 43.1672 39.7309 42.2182 38.7819L38.7818 42.2183ZM26.0183 22.5818C25.0693 21.6329 23.5307 21.6329 22.5817 22.5818C21.6328 23.5308 21.6328 25.0694 22.5817 26.0184L26.0183 22.5818ZM26.0183 58.4183L42.2182 42.2183L38.7818 38.7819L22.5817 54.9819L26.0183 58.4183ZM42.2182 42.2183L58.4182 26.0184L54.9818 22.5818L38.7818 38.7819L42.2182 42.2183ZM38.7818 42.2183L54.9818 58.4183L58.4182 54.9819L42.2182 38.7819L38.7818 42.2183ZM42.2182 38.7819L26.0183 22.5818L22.5817 26.0184L38.7818 42.2183L42.2182 38.7819Z" fill="black"/>
</svg>
